<svg width="34" height="33" viewBox="0 0 34 33" fill="none" xmlns="http://www.w3.org/2000/svg">
<g id="IconSearch">
<g id="SearchIcon">
<path id="Vector" d="M11.3235 24.1318C5.08175 24.1318 0 18.7168 0 12.0659C0 5.41493 5.08175 0 11.3235 0C17.5652 0 22.6469 5.41493 22.6469 12.0659C22.6469 18.7168 17.5652 24.1318 11.3235 24.1318ZM11.3235 1.76574C5.98762 1.76574 1.65709 6.39198 1.65709 12.0659C1.65709 17.7398 5.98762 22.366 11.3235 22.366C16.6593 22.366 20.9898 17.7398 20.9898 12.0659C20.9898 6.39198 16.6593 1.76574 11.3235 1.76574Z" fill="black"/>
<path id="Vector_2" d="M22.9244 25.3088C22.7145 25.3088 22.5046 25.2264 22.3389 25.0499L20.1294 22.6955C19.8091 22.3542 19.8091 21.7891 20.1294 21.4478C20.4498 21.1064 20.9801 21.1064 21.3004 21.4478L33.8339 32.9015C34.1543 33.2429 30.5293 32.5601 30.2089 32.9015C30.2089 32.8013 23.1343 25.3088 22.9244 25.3088Z" fill="black"/>
</g>
</g>
</svg>
